<svg xmlns="http://www.w3.org/2000/svg" viewBox="0 0 100 100" fill="none">
  <!-- Shield background -->
  <path d="M50 6L12 22V50C12 70 28 87 50 94C72 87 88 70 88 50V22L50 6Z"
        fill="#b8975a" opacity="0.15"/>
  <!-- Shield outline -->
  <path d="M50 6L12 22V50C12 70 28 87 50 94C72 87 88 70 88 50V22L50 6Z"
        stroke="#b8975a" stroke-width="2.5" stroke-linejoin="round" fill="none"/>
  <!-- Inner lines -->
  <path d="M50 18L24 30V50C24 65 35 77 50 82C65 77 76 65 76 50V30L50 18Z"
        stroke="#b8975a" stroke-width="1.5" stroke-linejoin="round"
        fill="none" opacity="0.5"/>
  <!-- Letter I -->
  <line x1="46" y1="36" x2="54" y2="36" stroke="#b8975a" stroke-width="2.5" stroke-linecap="round"/>
  <line x1="50" y1="36" x2="50" y2="64" stroke="#b8975a" stroke-width="2.5" stroke-linecap="round"/>
  <line x1="46" y1="64" x2="54" y2="64" stroke="#b8975a" stroke-width="2.5" stroke-linecap="round"/>
</svg>
